<?xml version="1.0" encoding="iso-8859-1"?>
<!-- Generator: Adobe Illustrator 19.0.0, SVG Export Plug-In . SVG Version: 6.00 Build 0)  -->
<svg version="1.1" id="Capa_1" xmlns="http://www.w3.org/2000/svg" xmlns:xlink="http://www.w3.org/1999/xlink" x="0px" y="0px"
	 viewBox="0 0 480 480" style="enable-background:new 0 0 480 480;" xml:space="preserve">
<path style="fill:#FDB62F;" d="M352,80h48v120h-48V80z"/>
<path style="fill:#FFA900;" d="M352,200h48v32h-48V200z"/>
<path style="fill:#6CBBC7;" d="M272,376h208v88H272V376z"/>
<path style="fill:#FFA900;" d="M80,440h144v32H80V440z"/>
<path d="M400,240c4.418,0,8-3.582,8-8V120h64c4.418,0,8-3.582,8-8V80c-0.041-0.297-0.1-0.59-0.176-0.88
	c-0.051-0.579-0.166-1.151-0.344-1.704c-0.148-0.407-0.33-0.8-0.544-1.176c-0.721-1.364-1.836-2.479-3.2-3.2
	c-0.401-0.224-0.821-0.411-1.256-0.56c-0.232-0.08-0.416-0.232-0.656-0.288l-304-72C169.226,0.058,168.614-0.006,168,0h-32
	c-0.946,0.021-1.881,0.21-2.76,0.56c-0.216,0.08-0.416,0.152-0.624,0.248s-0.368,0.12-0.544,0.216l-128,72
	c-0.395,0.264-0.764,0.564-1.104,0.896c-0.263,0.187-0.514,0.39-0.752,0.608c-0.67,0.682-1.211,1.479-1.6,2.352v0.096
	c-0.349,0.879-0.539,1.814-0.56,2.76C0.056,79.832,0,79.912,0,80.008v32c0,4.418,3.582,8,8,8h112v148.68l-29.656,29.656
	c-1.5,1.5-2.344,3.534-2.344,5.656v128H72v48h160v-48h-16V304c0-2.122-0.844-4.156-2.344-5.656L184,268.688V120h160v112
	c0,4.418,3.582,8,8,8h16v24c0,4.418,3.582,8,8,8c8.837,0,16,7.163,16,16s-7.163,16-16,16s-16-7.163-16-16v-8h-16v8
	c0.041,11.679,6.461,22.401,16.736,27.952L300.688,376H280c-4.418,0-8,3.582-8,8v72c0,4.418,3.582,8,8,8h192c4.418,0,8-3.582,8-8
	v-72c0-4.418-3.582-8-8-8h-20.688l-60.048-60.048c15.495-8.352,21.285-27.683,12.934-43.178
	c-4.231-7.849-11.556-13.567-20.198-15.766V240H400z M464,448H288v-56h176V448z M323.312,376L376,323.313L428.688,376H323.312z
	 M464,104h-56V88h56V104z M392,104h-32V88h32V104z M400,72H176V18.112L403.512,72H400z M147.312,432L168,411.313V432H147.312z
	 M136,272v-4.688L164.688,296L136,324.688V272z M139.312,344L168,315.313v57.376L139.312,344z M164.688,392L136,420.688v-57.376
	L164.688,392z M168,272v4.688L139.312,248L168,219.312V272z M136,228.688v-57.376l28.688,28.688L136,228.688z M139.312,152
	L168,123.312v57.376L139.312,152z M168,100.688L164.688,104H136V88h32V100.688z M160,16v56h-16V16H160z M128,21.68V72H38.536
	L128,21.68z M16,104V88h104v16H16z M148.688,120L136,132.688V120H148.688z M104,307.313l16-16V432h-16V307.313z M216,464H88v-16h128
	V464z M200,307.313V432h-16V291.313L200,307.313z M184,104V88h160v16H184z M392,120v72h-32v-72H392z M360,224.001v-16h32v16H360z"/>
<g>
</g>
<g>
</g>
<g>
</g>
<g>
</g>
<g>
</g>
<g>
</g>
<g>
</g>
<g>
</g>
<g>
</g>
<g>
</g>
<g>
</g>
<g>
</g>
<g>
</g>
<g>
</g>
<g>
</g>
</svg>
